<svg xmlns="http://www.w3.org/2000/svg" width="128" height="128" viewBox="0 0 32 32" shape-rendering="crispEdges">
  <rect width="32" height="32" fill="#101020"/>
  <path fill="#66518c" d="M8 6h16v24H8z"/>
  <path fill="#c1a4e8" d="M10 8h12v20H10z"/>
  <path fill="#302653" d="M12 10h8v18h-8z"/>
  <path fill="#f8edc9" d="M16 12h2v2h-2zM13 19h2v2h-2zM18 24h2v2h-2zM25 3h2v2h-2zM4 10h2v2H4z"/>
  <path fill="#b68ce0" d="M17 17h2v2h2v2h-2v2h-2v-2h-2v-2h2z"/>
  <path fill="#b57a4b" d="m6 9 6-3v22l-6 3z"/>
  <path fill="#f4c577" d="M9 19h2v2H9zM6 30h20v2H6z"/>
</svg>
